<svg xmlns="http://www.w3.org/2000/svg" width="62" height="61" viewBox="0 0 62 61">
    <g fill="none" fill-rule="evenodd" stroke="#FFF">
        <path d="M31 0L1 30l30 30 30-30L31 0zM2.248 30L31 1.248 59.752 30 31 58.752 2.248 30z"/>
        <path d="M10.766 30L31 50.234 51.234 30 31 9.766 10.766 30zM31 51.481L9.519 30 31 8.519 52.481 30 31 51.481z"/>
        <path d="M9.519 38.519L31 60l21.481-21.481L31 17.037 9.519 38.52zm1.247 0L31 18.285l20.234 20.234L31 58.752 10.766 38.52z"/>
        <path d="M15.688 44.688L31 60l15.312-15.312L31 29.376 15.688 44.688zm1.248 0L31 30.624l14.064 14.064L31 58.752 16.936 44.688z"/>
        <path d="M30.561 59.376h.878v-8.518h-.878z"/>
    </g>
</svg>
